<mxfile host="app.diagrams.net" agent="Mozilla/5.0 (Windows NT 10.0; Win64; x64) AppleWebKit/537.36 (KHTML, like Gecko) Chrome/140.0.0.0 Safari/537.36 Edg/140.0.0.0" version="28.2.3">
  <diagram name="Page-1" id="bUX2Eo_tb8X7_ZR7gfBu">
    <mxGraphModel dx="1034" dy="570" grid="1" gridSize="10" guides="1" tooltips="1" connect="1" arrows="1" fold="1" page="1" pageScale="1" pageWidth="850" pageHeight="1100" math="0" shadow="0">
      <root>
        <mxCell id="0" />
        <mxCell id="1" parent="0" />
        <mxCell id="LcFHINt55TX4OIlej4ik-1" value="bắt đầu" style="ellipse;whiteSpace=wrap;html=1;" parent="1" vertex="1">
          <mxGeometry x="310" y="130" width="180" height="140" as="geometry" />
        </mxCell>
        <mxCell id="LcFHINt55TX4OIlej4ik-2" value="" style="endArrow=classic;html=1;rounded=0;" parent="1" edge="1">
          <mxGeometry width="50" height="50" relative="1" as="geometry">
            <mxPoint x="399.5" y="270" as="sourcePoint" />
            <mxPoint x="399.5" y="320" as="targetPoint" />
          </mxGeometry>
        </mxCell>
        <mxCell id="LcFHINt55TX4OIlej4ik-3" value="chọn món ăn từ menu" style="rounded=0;whiteSpace=wrap;html=1;" parent="1" vertex="1">
          <mxGeometry x="320" y="320" width="160" height="80" as="geometry" />
        </mxCell>
        <mxCell id="LcFHINt55TX4OIlej4ik-4" value="" style="endArrow=classic;html=1;rounded=0;" parent="1" edge="1">
          <mxGeometry width="50" height="50" relative="1" as="geometry">
            <mxPoint x="399.5" y="400" as="sourcePoint" />
            <mxPoint x="399.5" y="470" as="targetPoint" />
          </mxGeometry>
        </mxCell>
        <mxCell id="LcFHINt55TX4OIlej4ik-5" value="xác nhận món ăn" style="rhombus;whiteSpace=wrap;html=1;" parent="1" vertex="1">
          <mxGeometry x="340" y="470" width="120" height="80" as="geometry" />
        </mxCell>
        <mxCell id="LcFHINt55TX4OIlej4ik-6" value="" style="endArrow=none;html=1;rounded=0;" parent="1" edge="1">
          <mxGeometry width="50" height="50" relative="1" as="geometry">
            <mxPoint x="200" y="510" as="sourcePoint" />
            <mxPoint x="340" y="509.5" as="targetPoint" />
            <Array as="points" />
          </mxGeometry>
        </mxCell>
        <mxCell id="LcFHINt55TX4OIlej4ik-7" value="" style="endArrow=none;html=1;rounded=0;" parent="1" edge="1">
          <mxGeometry width="50" height="50" relative="1" as="geometry">
            <mxPoint x="200" y="510" as="sourcePoint" />
            <mxPoint x="200" y="360" as="targetPoint" />
          </mxGeometry>
        </mxCell>
        <mxCell id="LcFHINt55TX4OIlej4ik-8" value="" style="endArrow=none;html=1;rounded=0;entryX=0;entryY=0.5;entryDx=0;entryDy=0;" parent="1" target="LcFHINt55TX4OIlej4ik-3" edge="1">
          <mxGeometry width="50" height="50" relative="1" as="geometry">
            <mxPoint x="200" y="360" as="sourcePoint" />
            <mxPoint x="250" y="310" as="targetPoint" />
          </mxGeometry>
        </mxCell>
        <mxCell id="LcFHINt55TX4OIlej4ik-9" value="không" style="text;html=1;align=center;verticalAlign=middle;resizable=0;points=[];autosize=1;strokeColor=none;fillColor=none;" parent="1" vertex="1">
          <mxGeometry x="120" y="418" width="60" height="30" as="geometry" />
        </mxCell>
        <mxCell id="LcFHINt55TX4OIlej4ik-10" value="" style="endArrow=classic;html=1;rounded=0;" parent="1" edge="1">
          <mxGeometry width="50" height="50" relative="1" as="geometry">
            <mxPoint x="399.5" y="550" as="sourcePoint" />
            <mxPoint x="399.5" y="620" as="targetPoint" />
          </mxGeometry>
        </mxCell>
        <mxCell id="LcFHINt55TX4OIlej4ik-12" value="cung cấp địa chỉ" style="shape=parallelogram;perimeter=parallelogramPerimeter;whiteSpace=wrap;html=1;fixedSize=1;" parent="1" vertex="1">
          <mxGeometry x="340" y="620" width="120" height="60" as="geometry" />
        </mxCell>
        <mxCell id="1boUzN-_C8zFxKbSRrXQ-1" value="" style="endArrow=classic;html=1;rounded=0;" edge="1" parent="1" target="1boUzN-_C8zFxKbSRrXQ-2">
          <mxGeometry width="50" height="50" relative="1" as="geometry">
            <mxPoint x="450" y="660" as="sourcePoint" />
            <mxPoint x="510" y="660" as="targetPoint" />
            <Array as="points" />
          </mxGeometry>
        </mxCell>
        <mxCell id="1boUzN-_C8zFxKbSRrXQ-2" value="thanh toán" style="rounded=0;whiteSpace=wrap;html=1;" vertex="1" parent="1">
          <mxGeometry x="520" y="630" width="120" height="60" as="geometry" />
        </mxCell>
        <mxCell id="1boUzN-_C8zFxKbSRrXQ-3" value="" style="endArrow=classic;html=1;rounded=0;" edge="1" parent="1" target="1boUzN-_C8zFxKbSRrXQ-4">
          <mxGeometry width="50" height="50" relative="1" as="geometry">
            <mxPoint x="579.5" y="690" as="sourcePoint" />
            <mxPoint x="579.5" y="760" as="targetPoint" />
          </mxGeometry>
        </mxCell>
        <mxCell id="1boUzN-_C8zFxKbSRrXQ-4" value="nhận món ăn" style="rounded=0;whiteSpace=wrap;html=1;" vertex="1" parent="1">
          <mxGeometry x="520" y="740" width="120" height="60" as="geometry" />
        </mxCell>
        <mxCell id="1boUzN-_C8zFxKbSRrXQ-5" value="" style="endArrow=classic;html=1;rounded=0;" edge="1" parent="1">
          <mxGeometry width="50" height="50" relative="1" as="geometry">
            <mxPoint x="515" y="780" as="sourcePoint" />
            <mxPoint x="425" y="780" as="targetPoint" />
          </mxGeometry>
        </mxCell>
        <mxCell id="1boUzN-_C8zFxKbSRrXQ-6" value="" style="ellipse;whiteSpace=wrap;html=1;" vertex="1" parent="1">
          <mxGeometry x="300" y="740" width="120" height="80" as="geometry" />
        </mxCell>
      </root>
    </mxGraphModel>
  </diagram>
</mxfile>
